# xmcd
# 
# Track frame offsets:
#     150
#     13517
#     28699
#     47417
#     63417
#     79978
#     98279
#     118902
# 
# Disc length: 1820
# 
# Revision: 0
# Processed by: cddbd v1.5.2PL0 Copyright (c) Steve Scherf et al.
# Submitted via: fre:ac v1.0.17
# 
DISCID=59071a08
DTITLE=Miley Cyrus - The Time Of Our Lives
DYEAR=2009
DGENRE=Pop
TTITLE0=Kicking And Screaming
TTITLE1=Party In The U.S.A.
TTITLE2=When I Look At You
TTITLE3=Time Of Our Lives
TTITLE4=Talk Is Cheap
TTITLE5=Obsessed
TTITLE6=Before The Storm (Duet with Jonas Brothers) (Live)
TTITLE7=The Climb
EXTD=
EXTT0=
EXTT1=
EXTT2=
EXTT3=
EXTT4=
EXTT5=
EXTT6=
EXTT7=
PLAYORDER=
